# Blender 3.4.1
# www.blender.org
mtllib test.mtl
o Cube
v 3.426949 1.000000 1.171480
v 3.426949 -1.000000 1.171476
v -1.000000 1.000000 1.171480
v -1.000000 -1.000000 1.171476
v -1.000000 -1.000000 -0.000000
v 3.426949 -1.000000 -0.000000
v 3.426949 2.100991 0.000000
v -1.000000 2.100991 0.000000
v 4.318068 -1.000000 3.151233
v -1.891119 -1.000000 3.151233
v -1.891119 -1.000000 -0.000000
v 4.318068 -1.000000 -0.000000
v -1.000000 1.000000 1.533635
v 3.426949 1.000000 1.533635
v 3.426949 1.000000 -1.171480
v 3.426949 -1.000000 -1.171476
v -1.000000 1.000000 -1.171480
v -1.000000 -1.000000 -1.171476
v 4.318068 -0.999999 -3.151233
v -1.891119 -0.999999 -3.151233
v -1.000000 1.000000 -1.533635
v 3.426949 1.000000 -1.533635
vn -0.0000 -0.0000 1.0000
vn 1.0000 -0.0000 -0.0000
vn -1.0000 -0.0000 -0.0000
vn -0.0000 0.8123 0.5832
vn -0.0000 1.0000 -0.0000
vn -0.0000 -1.0000 -0.0000
vn -0.0000 -0.0000 -1.0000
vn -0.0000 0.8123 -0.5832
vt 1.240475 0.332204
vt 0.114015 0.330877
vt -0.297755 0.554731
vt 1.240475 0.001641
vt 0.114017 0.000099
vt 0.856448 0.834443
vt -0.222208 0.332204
vt 0.111167 0.329309
vt 1.149723 0.554731
vt 0.111169 0.003613
vt -0.222209 0.001641
vt 0.143552 0.834443
vt 0.143552 0.737979
vt 0.470444 0.003613
vt 0.470444 0.000099
vt 0.856448 0.737979
vt 0.470444 0.512968
vt 0.999529 0.732749
vt 0.000975 0.732749
vt 0.470444 0.508603
vt 0.999950 0.997465
vt 0.000050 0.997465
vt 0.000050 0.737979
vt 0.999950 0.737979
vt 0.000099 0.329309
vt 1.149724 0.516335
vt 0.000974 0.518040
vt 0.000099 0.330877
vt 0.999530 0.518040
vt -0.297755 0.516335
vt 1.240475 0.332204
vt 0.114015 0.330877
vt -0.297755 0.554731
vt 1.240475 0.001641
vt 0.114017 0.000099
vt 0.856448 0.834443
vt -0.222208 0.332204
vt 0.111167 0.329309
vt 1.149723 0.554731
vt 0.111169 0.003613
vt -0.222209 0.001641
vt 0.143552 0.834443
vt 0.999950 0.997465
vt 0.000050 0.997465
vt 0.000099 0.329309
vt 1.149724 0.516335
vt 0.000974 0.518040
vt 0.000099 0.330877
vt 0.999530 0.518040
vt -0.297755 0.516335
s 0
usemtl Material.001
f 1/1/1 4/11/1 2/4/1
f 7/17/2 1/2/2 6/15/2
f 5/14/3 4/10/3 3/8/3
f 1/1/1 3/7/1 4/11/1
f 1/2/2 2/5/2 6/15/2
f 8/20/3 3/8/3 13/25/3
f 13/27/4 7/18/4 8/19/4
f 2/6/5 9/21/5 12/24/5
f 2/6/5 4/12/5 10/22/5
f 4/12/5 11/23/5 10/22/5
f 2/6/5 12/24/5 6/16/5
f 2/6/5 10/22/5 9/21/5
f 4/12/5 5/13/5 11/23/5
f 3/9/6 14/30/6 13/26/6
f 7/17/2 14/28/2 1/2/2
f 8/20/3 5/14/3 3/8/3
f 13/27/4 14/29/4 7/18/4
f 3/9/6 1/3/6 14/30/6
f 15/31/7 16/34/7 18/41/7
f 7/17/2 6/15/2 15/32/2
f 5/14/3 17/38/3 18/40/3
f 15/31/7 18/41/7 17/37/7
f 15/32/2 6/15/2 16/35/2
f 8/20/3 21/45/3 17/38/3
f 21/47/8 8/19/8 7/18/8
f 16/36/5 12/24/5 19/43/5
f 16/36/5 20/44/5 18/42/5
f 18/42/5 20/44/5 11/23/5
f 16/36/5 6/16/5 12/24/5
f 16/36/5 19/43/5 20/44/5
f 18/42/5 11/23/5 5/13/5
f 17/39/6 21/46/6 22/50/6
f 7/17/2 15/32/2 22/48/2
f 8/20/3 17/38/3 5/14/3
f 21/47/8 7/18/8 22/49/8
f 17/39/6 22/50/6 15/33/6
